<svg width="189" height="194" viewBox="0 0 189 194" fill="none" xmlns="http://www.w3.org/2000/svg">
<rect width="189" height="189" rx="40" fill="#624DFF"/>
<path d="M77.28 73.86C79.9467 69.7 83.6267 66.34 88.32 63.78C93.0133 61.22 98.5067 59.94 104.8 59.94C112.16 59.94 118.827 61.8067 124.8 65.54C130.773 69.2733 135.467 74.6067 138.88 81.54C142.4 88.4733 144.16 96.5267 144.16 105.7C144.16 114.873 142.4 122.98 138.88 130.02C135.467 136.953 130.773 142.34 124.8 146.18C118.827 149.913 112.16 151.78 104.8 151.78C98.6133 151.78 93.12 150.5 88.32 147.94C83.6267 145.38 79.9467 142.073 77.28 138.02V193.06H49.92V61.22H77.28V73.86ZM116.32 105.7C116.32 98.8733 114.4 93.54 110.56 89.7C106.827 85.7533 102.187 83.78 96.64 83.78C91.2 83.78 86.56 85.7533 82.72 89.7C78.9867 93.6467 77.12 99.0333 77.12 105.86C77.12 112.687 78.9867 118.073 82.72 122.02C86.56 125.967 91.2 127.94 96.64 127.94C102.08 127.94 106.72 125.967 110.56 122.02C114.4 117.967 116.32 112.527 116.32 105.7Z" fill="white"/>
</svg>
